#!OML:ASF F:\VICON\USERDATA\INSTALL\rory3\rory3.ASF
:FULLY-SPECIFIED
:DEGREES
611
root -7.94236 17.5573 8.99018 -0.779953 -8.94877 4.23486
lowerback 13.7843 0.348452 -7.07275
upperback 0.896474 -0.709887 -0.956598
thorax -6.72312 -0.151931 3.11771
lowerneck -8.12288 -9.14966 -12.8151
upperneck 37.1946 -15.5591 11.3943
head 16.907 -7.13028 4.55081
rclavicle 7.95139e-016 2.127e-014
rhumerus -35.7358 -18.5857 -75.7314
rradius 41.2275
rwrist 0.684522
rhand -24.4839 10.1856
rfingers 7.12502
rthumb 2.01001 -19.7846
lclavicle 7.95139e-016 2.127e-014
lhumerus -34.4314 10.979 76.727
lradius 27.4064
lwrist -10.8525
lhand -24.5943 20.1183
lfingers 7.12502
lthumb 1.90344 50.0895
rfemur -20.6866 -9.99627 16.1126
rtibia 55.1599
rfoot -16.5305 8.14909
rtoes -16.8474
lfemur -8.98871 1.33743 -23.7642
ltibia 27.6983
lfoot -18.329 -18.5222
ltoes -8.30431
612
root -7.99611 17.563 8.98579 -0.787172 -8.80068 4.33022
lowerback 13.8122 0.288764 -7.10004
upperback 0.90589 -0.796072 -0.971173
thorax -6.7194 -0.193602 3.13428
lowerneck -8.05188 -9.1384 -13.0155
upperneck 37.1697 -15.469 11.333
head 16.8734 -7.13022 4.57686
rclavicle -9.26834e-015 1.98785e-015
rhumerus -35.9448 -18.689 -75.8572
rradius 41.1334
rwrist 1.02202
rhand -24.3987 10.4643
rfingers 7.12502
rthumb 2.09226 -19.5052
lclavicle -9.26834e-015 1.98785e-015
lhumerus -34.1649 11.448 76.4467
lradius 27.1931
lwrist -11.1327
lhand -25.3837 18.8187
lfingers 7.12502
lthumb 1.14096 48.7954
rfemur -21.3838 -10.1577 15.6341
rtibia 56.264
rfoot -16.4411 9.48955
rtoes -18.9518
lfemur -8.88559 1.13349 -23.7217
ltibia 27.4262
lfoot -17.9262 -18.6297
ltoes -7.4097
613
root -8.05243 17.5669 8.98398 -0.888939 -8.60317 4.39755
lowerback 13.9112 0.236071 -7.08468
upperback 0.955678 -0.869508 -0.970147
thorax -6.71352 -0.231133 3.14179
lowerneck -8.04014 -9.15213 -13.2327
upperneck 37.2327 -15.404 11.2285
head 16.9047 -7.14414 4.58217
rclavicle 3.23025e-015 1.94809e-014
rhumerus -36.1635 -18.8404 -75.9378
rradius 41.0361
rwrist 1.3026
rhand -24.2116 10.4312
rfingers 7.12502
rthumb 2.27295 -19.5364
lclavicle 3.23025e-015 1.94809e-014
lhumerus -33.8886 11.7795 76.2602
lradius 27.0444
lwrist -11.1056
lhand -25.0468 19.4841
lfingers 7.12502
lthumb 1.46638 49.4588
rfemur -21.8826 -10.2494 15.1553
rtibia 57.1919
rfoot -16.0316 10.7807
rtoes -17.6613
lfemur -8.64504 0.942712 -23.6194
ltibia 27.1416
lfoot -17.4508 -18.8335
ltoes -6.31371
614
root -8.1099 17.5721 8.98376 -1.02626 -8.31571 4.33814
lowerback 14.0949 0.171618 -6.92925
upperback 0.994689 -0.942361 -0.943906
thorax -6.76814 -0.269704 3.09851
lowerneck -8.03595 -9.16508 -13.3497
upperneck 37.3716 -15.3615 11.0955
head 16.9685 -7.15631 4.55585
rclavicle 3.42407e-014 3.97569e-016
rhumerus -36.383 -19.0499 -75.984
rradius 40.8853
rwrist 1.49723
rhand -24.1493 10.1583
rfingers 7.12502
rthumb 2.33315 -19.8087
lclavicle 3.42407e-014 3.97569e-016
lhumerus -33.7157 12.1464 76.0491
lradius 27.067
lwrist -11.2289
lhand -23.521 22.5296
lfingers 7.12502
lthumb 2.93993 52.4891
rfemur -22.2007 -10.3239 14.7919
rtibia 57.9288
rfoot -15.4149 11.7276
rtoes -14.7727
lfemur -8.32174 0.577413 -23.3692
ltibia 26.8467
lfoot -16.9386 -18.853
ltoes -5.48614
615
root -8.1666 17.5734 8.9841 -1.20379 -8.06519 4.45408
lowerback 14.2288 0.138027 -6.93708
upperback 1.06623 -0.997773 -0.968061
thorax -6.76045 -0.298678 3.08941
lowerneck -8.01741 -9.16558 -13.3603
upperneck 37.3975 -15.2865 10.9163
head 16.9406 -7.14534 4.492
rclavicle -1.54679e-014 7.55382e-015
rhumerus -36.5144 -19.2143 -76.0836
rradius 40.6613
rwrist 1.72226
rhand -24.2288 10.0764
rfingers 7.12502
rthumb 2.25642 -19.8914
lclavicle -1.54679e-014 7.55382e-015
lhumerus -33.4756 12.4738 75.9188
lradius 26.9659
lwrist -10.9887
lhand -22.7575 24.3122
lfingers 7.12502
lthumb 3.67729 54.2602
rfemur -22.3666 -10.3323 14.1542
rtibia 58.4817
rfoot -15.2243 11.9417
rtoes -13.5292
lfemur -7.97369 0.220759 -23.3443
ltibia 26.5594
lfoot -16.7275 -18.5853
ltoes -5.83293
616
root -8.22692 17.5757 8.98833 -1.38017 -7.82141 4.55614
lowerback 14.255 0.0865888 -7.00638
upperback 1.16869 -1.07265 -0.950184
thorax -6.65546 -0.338881 3.16188
lowerneck -8.03421 -9.15037 -13.3441
upperneck 37.4378 -15.1815 10.7098
head 16.917 -7.11983 4.41639
rclavicle 2.71838e-014 1.51076e-014
rhumerus -36.661 -19.1265 -76.2185
rradius 40.4761
rwrist 1.86
rhand -24.0874 10.0433
rfingers 7.12502
rthumb 2.39292 -19.923
lclavicle 2.71838e-014 1.51076e-014
lhumerus -33.2157 12.4864 75.9681
lradius 26.837
lwrist -9.61481
lhand -22.4064 25.3125
lfingers 7.12502
lthumb 4.01635 55.2544
rfemur -22.3708 -10.29 13.4722
rtibia 58.8471
rfoot -15.3324 11.207
rtoes -13.4438
lfemur -7.61098 -0.131005 -23.2965
ltibia 26.2912
lfoot -16.7593 -18.4194
ltoes -6.49765
617
root -8.29008 17.5866 8.99155 -1.4734 -7.58558 4.3403
lowerback 14.3443 0.0206828 -6.82804
upperback 1.17827 -1.12739 -0.799506
thorax -6.68896 -0.367361 3.23423
lowerneck -7.89137 -9.12755 -13.4937
upperneck 37.4937 -15.0679 10.5506
head 16.8873 -7.11629 4.40028
rclavicle 2.79541e-015 7.65321e-015
rhumerus -36.9618 -18.9557 -76.2365
rradius 40.3012
rwrist 1.9527
rhand -24.0846 10.1461
rfingers 7.12502
rthumb 2.39567 -19.8202
lclavicle 2.79541e-015 7.65321e-015
lhumerus -33.1134 12.5335 76.0339
lradius 26.9725
lwrist -8.50942
lhand -22.0791 26.1633
lfingers 7.12502
lthumb 4.33244 56.0989
rfemur -22.3651 -10.1041 13.1783
rtibia 59.0146
rfoot -15.4184 9.72915
rtoes -14.0688
lfemur -7.28634 -0.530395 -22.8923
ltibia 26.0161
lfoot -16.8418 -18.2137
ltoes -7.39836
618
root -8.35453 17.5998 8.9949 -1.48689 -7.34567 4.10023
lowerback 14.4382 -0.0190014 -6.60306
upperback 1.13099 -1.14234 -0.648512
thorax -6.79125 -0.374144 3.2735
lowerneck -7.81091 -9.14672 -13.6347
upperneck 37.6169 -15.0348 10.4128
head 16.9283 -7.13953 4.37617
rclavicle 1.01504e-014 1.03368e-014
rhumerus -37.305 -19.0185 -76.0967
rradius 40.0212
rwrist 2.11466
rhand -24.0746 10.4235
rfingers 7.12502
rthumb 2.40535 -19.5427
lclavicle 1.01504e-014 1.03368e-014
lhumerus -32.9778 12.5078 76.14
lradius 27.1314
lwrist -8.00983
lhand -22.185 26.6371
lfingers 7.12502
lthumb 4.23011 56.5748
rfemur -22.3853 -9.89434 12.9032
rtibia 59.0212
rfoot -15.4585 7.97254
rtoes -14.6217
lfemur -7.02734 -0.812733 -22.4576
ltibia 25.696
lfoot -17.0696 -17.8139
ltoes -9.66569
619
root -8.42144 17.6111 9.00414 -1.61507 -7.00991 3.98724
lowerback 14.4459 -0.0653384 -6.49498
upperback 1.21814 -1.1743 -0.532374
thorax -6.69782 -0.396248 3.34214
lowerneck -7.81977 -9.18442 -13.6238
upperneck 37.6013 -15.0193 10.2469
head 16.8964 -7.14657 4.30006
rclavicle -9.55098e-015 2.29348e-014
rhumerus -37.4183 -19.2538 -75.9546
rradius 39.5664
rwrist 2.37004
rhand -23.8497 10.5718
rfingers 7.12502
rthumb 2.62254 -19.3918
lclavicle -9.55098e-015 2.29348e-014
lhumerus -32.8018 12.3648 76.3401
lradius 27.4665
lwrist -7.57048
lhand -22.2488 27.004
lfingers 7.12502
lthumb 4.16856 56.9429
rfemur -22.1885 -9.78371 12.3985
rtibia 58.8879
rfoot -15.3488 6.28462
rtoes -12.9191
lfemur -6.63681 -1.19978 -22.1631
ltibia 25.3529
lfoot -17.0308 -17.492
ltoes -10.8848
620
root -8.48889 17.6209 9.01744 -1.81796 -6.61815 3.92176
lowerback 14.4955 -0.114905 -6.41937
upperback 1.30154 -1.22004 -0.425528
thorax -6.62989 -0.423274 3.42259
lowerneck -7.76872 -9.23297 -13.6758
upperneck 37.5778 -15.0313 10.1255
head 16.8641 -7.17164 4.25198
rclavicle 2.95488e-014 1.46873e-014
rhumerus -37.6333 -19.2792 -75.8199
rradius 39.2191
rwrist 2.44581
rhand -23.7552 10.6312
rfingers 7.12502
rthumb 2.71378 -19.3313
lclavicle 2.95488e-014 1.46873e-014
lhumerus -32.75 12.1352 76.5595
lradius 27.9234
lwrist -7.09653
lhand -22.1667 27.1356
lfingers 7.12502
lthumb 4.24775 57.073
rfemur -21.8036 -9.684 11.7812
rtibia 58.635
rfoot -15.152 4.59475
rtoes -10.3366
lfemur -6.17267 -1.62787 -21.9201
ltibia 25.0024
lfoot -16.7372 -17.4287
ltoes -10.9148
621
root -8.55715 17.6309 9.02713 -1.93575 -6.29165 3.68524
lowerback 14.595 -0.139996 -6.17218
upperback 1.32178 -1.21018 -0.293083
thorax -6.66627 -0.422648 3.42418
lowerneck -7.7733 -9.31297 -13.7563
upperneck 37.6477 -15.1251 10.0779
head 16.926 -7.22452 4.22697
rclavicle -8.7869e-015 1.24489e-014
rhumerus -37.8993 -19.502 -75.6417
rradius 38.8663
rwrist 2.55975
rhand -23.7511 10.6116
rfingers 7.12502
rthumb 2.71777 -19.3508
lclavicle -8.7869e-015 1.24489e-014
lhumerus -32.6308 11.8171 76.7612
lradius 28.2283
lwrist -6.71832
lhand -22.1855 27.2299
lfingers 7.12502
lthumb 4.22962 57.1677
rfemur -21.4667 -9.47718 11.3661
rtibia 58.2638
rfoot -14.4876 2.46017
rtoes -7.33664
lfemur -5.81031 -1.99483 -21.4766
ltibia 24.6471
lfoot -16.4083 -17.4691
ltoes -10.5009
